<svg width="26" height="27" viewBox="0 0 26 27" fill="none" xmlns="http://www.w3.org/2000/svg">
<path d="M18.7891 19.8203C20.2561 21.0147 21.125 22.1598 21.125 24.1875M7.21094 19.8203C5.74387 21.0147 4.875 22.1593 4.875 24.1875M19.5 11.1875C20.9671 9.99312 21.125 8.3402 21.125 6.3125M6.5 11.0859C5.03293 9.89156 4.875 8.3407 4.875 6.3125M23.5625 15.2566H19.5M6.5 15.2566H2.4375M13 10.375V23.375" stroke="#C69B2C" stroke-width="2" stroke-linecap="round" stroke-linejoin="round"/>
<path d="M13 23.375C9.425 23.375 6.5 20.45 6.5 16.875V11.9965C6.5 8.69212 9.425 7.12146 13 7.12146C16.575 7.12146 19.5 8.42146 19.5 11.9965V16.875C19.5 20.45 16.575 23.375 13 23.375Z" stroke="#C69B2C" stroke-width="2" stroke-linecap="round" stroke-linejoin="round"/>
<path d="M9.11168 7.91312C9.01005 7.65826 8.9512 7.38837 8.9375 7.11434C8.94031 6.04059 9.36811 5.01162 10.1274 4.25236C10.8866 3.49311 11.9156 3.06531 12.9893 3.0625H13.0107C14.0844 3.06531 15.1134 3.49311 15.8726 4.25236C16.6319 5.01162 17.0597 6.04059 17.0625 7.11434C17.0527 7.36381 16.9991 7.60962 16.9041 7.84051" stroke="#C69B2C" stroke-width="2" stroke-linecap="round" stroke-linejoin="round"/>
</svg>
