<svg width="32" height="26" viewBox="0 0 32 26" fill="none" xmlns="http://www.w3.org/2000/svg">
<path d="M13.8536 10C14.4509 14.1108 13.0984 17.3835 12 21" stroke="#C69B2C" stroke-width="2" stroke-linecap="round" stroke-linejoin="round"/>
<path d="M17.2015 10C16.3218 14.2295 18.5822 18.0445 19 22" stroke="#C69B2C" stroke-width="2" stroke-linecap="round" stroke-linejoin="round"/>
<mask id="path-3-outside-1_587_2433" maskUnits="userSpaceOnUse" x="1" y="0" width="29" height="17" fill="black">
<rect fill="white" x="1" width="29" height="17"/>
<path d="M4 10.3364C13.5491 -6.97202 39.9419 11.4357 19.323 14Z"/>
</mask>
<path d="M2.24883 9.37032C1.71525 10.3375 2.06673 11.554 3.03388 12.0876C4.00103 12.6212 5.2176 12.2697 5.75117 11.3026L2.24883 9.37032ZM19.0761 12.0153C17.98 12.1516 17.2019 13.1507 17.3383 14.2468C17.4746 15.343 18.4737 16.121 19.5698 15.9847L19.0761 12.0153ZM5.75117 11.3026C7.84554 7.50634 10.7755 5.7694 13.6978 5.21068C16.6967 4.63734 19.7868 5.2921 22.0391 6.48376C23.1633 7.07855 23.9885 7.75981 24.4815 8.38665C24.9833 9.02458 25.0198 9.43436 24.9929 9.61123C24.9732 9.74093 24.8605 10.1516 23.9729 10.6663C23.0622 11.1943 21.5139 11.7121 19.0761 12.0153L19.5698 15.9847C22.2868 15.6468 24.4241 15.0284 25.9793 14.1266C27.5576 13.2114 28.6912 11.8985 28.9475 10.2123C29.1966 8.57329 28.5388 7.07489 27.6255 5.91375C26.7035 4.74151 25.3929 3.7328 23.9098 2.94814C20.9476 1.38088 16.9378 0.518777 12.9467 1.28185C8.87902 2.05955 4.92899 4.51231 2.24883 9.37032L5.75117 11.3026Z" fill="#C69B2C" mask="url(#path-3-outside-1_587_2433)"/>
<path d="M12.5349 13.9569C11.3768 14.3666 3.70334 11.7488 4.00888 10.6584C5.13961 6.62573 22.938 7.85367 26 9.93428" stroke="#C69B2C" stroke-width="2" stroke-linecap="round" stroke-linejoin="round"/>
<path d="M12 21.5C12 24.5 19 24.5 19 22.5" stroke="#C69B2C" stroke-width="2" stroke-linecap="round" stroke-linejoin="round"/>
</svg>
