<svg width="125" height="79" viewBox="0 0 125 79" fill="none" xmlns="http://www.w3.org/2000/svg">
<g clip-path="url(#clip0_386_2777)">
<path d="M105.136 57.4692C99.5517 64.5157 89.3154 65.7048 82.2652 60.1286C80.9089 58.9821 79.7792 57.6434 78.8839 56.1778C78.1037 54.9004 76.4681 53.646 74.7688 52.6071C73.4678 51.8118 72.0345 51.0865 70.7078 50.5202C71.3989 49.7143 72.1136 48.9431 72.8152 48.186C73.2479 47.719 73.6756 47.2574 74.0898 46.7963C75.3967 45.3416 76.6308 43.8292 77.077 42.3216C77.611 40.5174 78.4533 38.7895 79.613 37.2242C85.2023 30.1846 95.4393 29.0029 102.486 34.5867C109.536 40.1738 110.723 50.4186 105.136 57.4692Z" stroke="#C69B2C" stroke-width="2"/>
<path d="M87.7281 48.3538L91.6957 52.8985L93.0934 50.63C94.8279 47.8148 97.1699 45.4231 99.948 43.6298V43.6298" stroke="white" stroke-width="2" stroke-linecap="round"/>
<path d="M22.5508 63.7188C28.5486 69.4384 37.8971 69.3106 43.4411 63.5095C44.498 62.3263 45.3263 60.9964 45.9279 59.5785C46.4684 58.3045 47.7929 56.9651 49.1858 55.8277C50.2175 54.9853 51.3693 54.1881 52.459 53.5329C51.752 52.9115 51.0308 52.3208 50.3216 51.7398C49.8662 51.3668 49.4157 50.9978 48.977 50.6273C47.5982 49.4627 46.266 48.2293 45.6494 46.9032C44.9218 45.3385 43.9274 43.8776 42.6693 42.5993C36.6672 36.8868 27.3185 37.0219 21.7792 42.8307C16.2365 48.643 16.5491 57.9955 22.5508 63.7188Z" stroke="#C69B2C" stroke-width="2"/>
<path d="M27.0168 57.761L36.7237 47.4315" stroke="white" stroke-width="2" stroke-linecap="round"/>
<path d="M26.7055 47.7428L37.035 57.4497" stroke="white" stroke-width="2" stroke-linecap="round"/>
<path d="M53.0809 20.0323C52.7511 19.9028 52.7131 19.4562 52.9669 18.6925C53.2128 17.9814 53.7902 17.2224 54.6988 16.4155C55.6174 15.5977 56.987 15.1432 58.8076 15.052C61.0444 14.9399 62.715 15.3933 63.8195 16.4122C64.9234 17.4208 65.5199 18.8145 65.6091 20.5936C65.6836 22.0813 64.9004 23.831 63.2594 25.8427C61.6283 27.8435 60.8488 29.5617 60.9207 30.9974L60.9387 31.3564C60.9621 31.8245 60.7398 32.0703 60.2716 32.0938L58.9296 32.161C58.4614 32.1845 58.2156 31.9621 58.1921 31.494L58.1632 30.9166C58.0751 29.1584 58.7961 27.3127 60.3263 25.3795C61.8664 23.4354 62.6062 21.86 62.5457 20.6532C62.4821 19.3839 62.1411 18.5093 61.5225 18.0292C60.904 17.5491 60.0745 17.3352 59.0341 17.3873C57.8898 17.4446 57.0367 17.696 56.4749 18.1413C55.9236 18.5861 55.515 19.175 55.2493 19.908C55.0382 20.4818 54.7092 20.6808 54.2623 20.505L53.0809 20.0323ZM59.0004 37.946C58.5322 37.9695 58.2864 37.7471 58.2629 37.2789L58.1676 35.3751C58.1441 34.9069 58.3665 34.6611 58.8346 34.6376L60.5824 34.5501C61.0506 34.5266 61.2964 34.749 61.3199 35.2171L61.4152 37.121C61.4387 37.5892 61.2163 37.835 60.7482 37.8584L59.0004 37.946Z" fill="white"/>
<path d="M41.5564 26.7762C40.8028 16.8493 48.2393 8.19095 58.1663 7.43735C68.0932 6.68375 76.7515 14.1202 77.5051 24.0472C78.03 30.9605 74.583 37.2602 69.0843 40.7026C68.3075 41.1888 67.5193 41.9984 66.7661 42.9669C66.0019 43.9494 65.2285 45.1546 64.4942 46.4938C63.4603 48.3795 62.4878 50.5608 61.7209 52.8101C60.7255 50.6734 59.4089 48.6604 58.0463 46.9637C56.126 44.5725 53.9933 42.66 52.3951 41.9695C46.4397 39.3967 42.0812 33.6895 41.5564 26.7762Z" stroke="#C69B2C" stroke-width="2"/>
</g>
<defs>
<clipPath id="clip0_386_2777">
<rect width="125" height="79" fill="white"/>
</clipPath>
</defs>
</svg>
