<svg width="105" height="101" viewBox="0 0 105 101" fill="none" xmlns="http://www.w3.org/2000/svg">
<path d="M42.4166 18.7688V12.0019C42.4166 10.9916 41.9375 10.2298 41.0675 9.85691C40.4204 9.57965 39.7172 9.57965 39.3792 9.57965C38.2652 9.57965 37.0945 9.89108 35.8723 10.5096C35.8654 10.513 35.8582 10.5162 35.8514 10.5198C33.792 11.5673 31.5863 13.4871 29.2571 16.2643C27.2269 18.685 25.6831 21.0751 24.9994 22.1856C24.9112 22.1268 24.8176 22.0756 24.7194 22.0329C25.3083 20.16 26.2354 19.1948 26.2546 19.1752C26.4785 18.9498 26.478 18.5858 26.2532 18.3611C26.028 18.1358 25.6628 18.1358 25.4376 18.3611C25.3961 18.4026 24.6437 19.1685 23.9999 20.6596C23.3561 19.1685 22.6037 18.4026 22.5622 18.3611C22.3377 18.1366 21.9746 18.1367 21.749 18.3602C21.5235 18.5839 21.5221 18.9486 21.7449 19.175C21.7552 19.1854 22.6885 20.1508 23.2803 22.033C23.1822 22.0757 23.0884 22.1269 23.0003 22.1857C22.3167 21.0751 20.7728 18.6851 18.7426 16.2644C16.4137 13.4872 14.2079 11.5674 12.1486 10.5199C12.1418 10.5162 12.1348 10.5131 12.1277 10.5097C10.9054 9.89115 9.73469 9.57972 8.6207 9.57972C8.28272 9.57972 7.57951 9.57972 6.93241 9.85698C6.06243 10.2298 5.58331 10.9915 5.58331 12.0019V18.7688C5.58331 20.6202 6.29063 22.2446 7.62879 23.4666C8.85788 24.5891 10.5271 25.3102 12.5554 25.6114C10.7365 26.2545 9.1219 27.1094 8.17769 28.2423C7.22592 29.3845 6.89162 30.6862 7.1842 32.1113C7.7759 34.9941 10.7739 37.4639 12.2455 38.29C12.4541 38.7369 13.0288 39.737 14.1127 40.0763C14.3575 40.153 14.6093 40.1912 14.8677 40.1912C15.5698 40.1912 16.3199 39.9087 17.107 39.3464C18.2949 38.498 19.9532 36.3314 21.5429 33.5507C22.6036 31.6955 23.4583 29.8691 24.0001 28.3303C24.5418 29.8691 25.3965 31.6955 26.4572 33.5507C28.0469 36.3313 29.7052 38.4979 30.8931 39.3464C31.6802 39.9087 32.4303 40.1912 33.1324 40.1912C33.3908 40.1912 33.6427 40.1529 33.8874 40.0763C34.9714 39.7369 35.546 38.7369 35.7546 38.29C37.2262 37.4639 40.2241 34.9941 40.8159 32.1113C41.1084 30.6862 40.7742 29.3845 39.8224 28.2423C38.8782 27.1093 37.2635 26.2544 35.4446 25.6113C37.4729 25.3101 39.1423 24.589 40.3713 23.4667C41.7093 22.2446 42.4166 20.6202 42.4166 18.7688ZM39.3793 10.7331C40.7174 10.7331 41.2632 11.1007 41.2632 12.0019V12.5555C40.7861 12.0208 40.2326 11.6294 39.7343 11.3512C39.3247 11.1225 38.9097 10.9456 38.5068 10.8101C38.799 10.76 39.0901 10.7331 39.3793 10.7331ZM6.73673 12.0018C6.73673 11.1007 7.28254 10.7331 8.6207 10.7331C8.90982 10.7331 9.20097 10.76 9.49319 10.81C9.09025 10.9455 8.6753 11.1224 8.26567 11.3511C7.76741 11.6292 7.21391 12.0207 6.73673 12.5553V12.0018ZM8.40653 22.6148C7.31412 21.6172 6.73673 20.2874 6.73673 18.7688V15.1847C6.94068 13.7012 7.98446 12.829 8.82796 12.3583C9.85382 11.7855 10.9845 11.5667 11.7055 11.5956C13.9914 12.7895 16.194 15.022 17.8487 16.9934C20.1171 19.696 21.8065 22.4334 22.2626 23.1944C22.2175 23.3521 22.1928 23.5183 22.1928 23.6903V23.767C21.1965 23.8439 18.9904 24.0539 16.5727 24.5382C16.5704 24.5384 16.5681 24.5382 16.5658 24.5384C13.0159 24.8608 10.1182 24.1779 8.40653 22.6148ZM16.4366 38.4078C15.6723 38.9538 15.0082 39.1453 14.4627 38.9772C13.9562 38.8211 13.6147 38.3797 13.424 38.0556C14.0327 37.6608 15.5057 36.9003 18.1487 36.6065C17.5135 37.426 16.9201 38.0625 16.4366 38.4078ZM19.0418 35.3746C15.3655 35.5959 13.3858 36.6808 12.6467 37.1906C11.2067 36.3349 8.78342 34.1662 8.31394 31.8793C8.09251 30.8 8.33768 29.8519 9.0637 28.9807C10.2342 27.5762 12.9598 26.422 16.9461 25.6429C19.1649 25.2091 21.2118 25.0058 22.193 24.9254C22.1951 25.6798 22.6618 26.3267 23.3216 26.5949C22.7358 29.0758 20.8473 32.7309 19.0418 35.3746ZM24.6536 24.9204C24.6536 25.2809 24.3604 25.5741 24 25.5741C23.6396 25.5741 23.3463 25.2809 23.3463 24.9204V23.6901C23.3463 23.3303 23.6388 23.0373 23.9985 23.0365C23.9988 23.0365 23.9992 23.0366 23.9995 23.0366C23.9996 23.0366 23.9998 23.0366 23.9999 23.0366C24.0001 23.0366 24.0002 23.0366 24.0003 23.0366C24.0006 23.0366 24.001 23.0365 24.0013 23.0365C24.361 23.0373 24.6535 23.3301 24.6535 23.6901V24.9204H24.6536ZM33.5428 38.9755C32.9964 39.1465 32.3304 38.9556 31.5635 38.4078C31.08 38.0626 30.4871 37.4266 29.8522 36.6076C31.5382 36.7974 32.7321 37.1775 33.4808 37.4925C33.9802 37.7025 34.3399 37.9067 34.5746 38.0579C34.384 38.3807 34.0445 38.8185 33.5428 38.9755ZM38.9362 28.9807C39.6622 29.8519 39.9074 30.8 39.6859 31.8793C39.2166 34.1662 36.7932 36.3349 35.3532 37.1906C34.6142 36.6807 32.6344 35.5958 28.9581 35.3746C27.1525 32.7308 25.264 29.0759 24.6782 26.5949C25.3379 26.3267 25.8047 25.6798 25.8068 24.9254C26.788 25.0058 28.8349 25.2091 31.0537 25.6429C35.0401 26.422 37.7658 27.5763 38.9362 28.9807ZM39.5934 22.6148C37.8818 24.178 34.9839 24.8611 31.4343 24.5384C31.432 24.5382 31.4297 24.5383 31.4274 24.5381C29.0095 24.0537 26.8034 23.8438 25.8071 23.7669V23.6901C25.8071 23.5181 25.7824 23.3519 25.7374 23.1942C26.1924 22.4349 27.8752 19.7072 30.1411 17.0055C31.7985 15.0292 34.005 12.7911 36.2945 11.5954C37.0158 11.5665 38.1462 11.7853 39.1721 12.3581C40.0156 12.829 41.0594 13.701 41.2633 15.1846V18.7686C41.2632 20.2873 40.6858 21.6172 39.5934 22.6148Z" fill="white"/>
<g clip-path="url(#clip0_580_2295)">
<path d="M92.4103 27.5009C92.2013 27.2287 91.8174 27.1822 91.5521 27.3968L90.604 28.1631L87.9107 28.752L85.0157 28.0741L85.1153 27.6376H88.2512C88.445 27.6376 88.6277 27.5435 88.7427 27.383L90.7886 24.5432C90.8669 24.4354 90.9084 24.3049 90.9084 24.1707V22.8192C90.9084 22.4731 90.6346 22.1921 90.2971 22.1921C89.9597 22.1921 89.6858 22.473 89.6858 22.8192V23.9638L87.9431 26.3833H85.4002L85.4693 26.0804C85.6367 25.3447 85.4736 24.5934 85.0426 24.0108C85.69 23.5843 86.3734 22.9082 86.8593 21.9581C87.6619 20.3883 87.6674 18.4247 86.9626 17.4784C87.3245 16.2397 86.9614 14.537 86.4119 13.3599C85.7431 11.9287 84.5322 10.9359 83.3268 10.8305C83.0902 10.8098 82.864 10.9309 82.7454 11.1416C82.6268 11.3523 82.6378 11.6145 82.7735 11.8146C82.9184 12.0265 83.048 12.2548 83.1586 12.4919C83.4325 13.0776 83.5816 13.6985 83.5688 14.1946C83.5596 14.5715 83.4557 14.7916 83.3634 14.8368C83.1549 14.939 82.4306 14.5495 81.845 13.469C81.7093 13.2187 81.4263 13.0946 81.1561 13.1673C80.8859 13.2394 80.6983 13.4903 80.6995 13.7762C80.7025 14.4868 80.8755 15.2287 81.1995 15.9223C81.7545 17.1095 82.8836 18.2227 84.0017 18.705C83.7913 19.0587 83.5591 19.487 83.2803 20.032C82.998 20.5839 82.7027 21.1848 82.4802 21.7479L82.3891 21.6708C81.6146 21.0142 80.7503 20.5269 79.8419 20.2083L80.013 19.373C80.0821 19.0343 79.8706 18.7019 79.5405 18.6304C79.2098 18.5595 78.8858 18.7765 78.8162 19.1158L78.6572 19.8929C77.6963 19.7148 76.7097 19.7148 75.7482 19.8929L75.5892 19.1158C75.5201 18.7765 75.1956 18.5595 74.8655 18.6304C74.5348 18.7019 74.3233 19.0343 74.3929 19.373L74.5635 20.2083C73.6557 20.5269 72.7907 21.0142 72.0163 21.6708L71.9258 21.7479C71.7033 21.1854 71.408 20.5839 71.1262 20.032C70.8475 19.487 70.6146 19.0587 70.4043 18.7044C71.5224 18.2221 72.6514 17.1095 73.2065 15.9223C73.5304 15.2275 73.7035 14.4855 73.7065 13.7762C73.7077 13.4903 73.5201 13.2394 73.2499 13.1673C72.9803 13.0946 72.6967 13.2187 72.561 13.469C71.9754 14.5495 71.2504 14.9396 71.042 14.8368C70.9497 14.7916 70.8464 14.5715 70.8365 14.1946C70.8237 13.6985 70.9735 13.0782 71.2474 12.4913C71.358 12.2542 71.487 12.0271 71.6318 11.8152C71.7682 11.6157 71.7792 11.3536 71.6612 11.1422C71.5426 10.9315 71.3152 10.8092 71.0793 10.8305C69.8732 10.9359 68.6623 11.9287 67.9942 13.3599C67.4447 14.537 67.0815 16.2404 67.4428 17.4796C66.738 18.4259 66.7435 20.389 67.5461 21.9581C68.0314 22.9082 68.7155 23.5849 69.3622 24.0114C68.9318 24.594 68.7692 25.3447 68.9361 26.0803L69.0052 26.3832H66.5153L64.7726 23.9637V22.8191C64.7726 22.4729 64.4987 22.1919 64.1613 22.1919C63.8238 22.1919 63.55 22.4729 63.55 22.8191V24.1706C63.55 24.3048 63.5915 24.4353 63.6698 24.5431L65.7157 27.3828C65.8306 27.5434 66.0134 27.6375 66.2072 27.6375H69.2905L69.3902 28.0758L66.5465 28.7519L63.8544 28.163L62.9063 27.3967C62.641 27.1822 62.2571 27.2286 62.0481 27.5007C61.839 27.7729 61.8842 28.1668 62.1495 28.3812L63.2089 29.2385C63.2822 29.2981 63.3684 29.3395 63.4601 29.3596L66.4248 30.0074C66.467 30.0168 66.5092 30.0212 66.552 30.0212C66.5985 30.0212 66.6449 30.0156 66.6902 30.0049L69.7038 29.2887C69.7387 29.3953 69.7753 29.5006 69.8144 29.6054L66.6669 31.088C66.5838 31.1269 66.5111 31.1846 66.4524 31.2561L64.374 33.8094C64.3135 33.884 64.2701 33.9724 64.2481 34.0671L64.0036 35.1314C63.9265 35.4688 64.1301 35.8062 64.4584 35.8859C64.5054 35.8972 64.5531 35.9028 64.5996 35.9028C64.8765 35.9028 65.1277 35.7078 65.1937 35.4193L65.4052 34.4993L67.302 32.1694L70.3376 30.7395C70.3902 30.8335 70.4445 30.9263 70.5008 31.0179L68.659 32.6679C68.5985 32.7225 68.5489 32.7883 68.5129 32.8624L67.4536 35.0631C67.412 35.1496 67.39 35.2443 67.39 35.3409V36.4509C67.39 36.7971 67.6638 37.0781 68.0013 37.0781C68.3393 37.0781 68.6126 36.7972 68.6126 36.4509V35.487L69.5552 33.5303L71.2307 32.0296C71.5492 32.4071 71.9019 32.7571 72.2858 33.0694C73.6789 34.2033 75.4247 34.828 77.2029 34.828C78.9805 34.828 80.7269 34.2033 82.1194 33.0694C82.513 32.7496 82.8725 32.3908 83.1977 32.002L84.9032 33.5303L85.8458 35.487V36.4509C85.8458 36.7971 86.119 37.0781 86.4571 37.0781C86.7945 37.0781 87.0684 36.7972 87.0684 36.4509V35.3409C87.0684 35.2443 87.0464 35.1496 87.0048 35.0631L85.9454 32.8624C85.9094 32.7883 85.8598 32.7225 85.7993 32.6679L83.9233 30.9865C83.9765 30.8987 84.0284 30.8097 84.0786 30.7193L87.1564 32.1693L89.0532 34.4992L89.2647 35.4192C89.3307 35.7083 89.5819 35.9027 89.8588 35.9027C89.9053 35.9027 89.9529 35.8971 90 35.8858C90.3283 35.8062 90.5318 35.4688 90.4548 35.1314L90.2103 34.0671C90.1883 33.9724 90.1448 33.8839 90.0844 33.8093L88.006 31.2562C87.9473 31.1847 87.8746 31.127 87.7914 31.0881L84.5993 29.5842C84.6354 29.4863 84.6696 29.3872 84.702 29.2875L87.77 30.0056C87.8146 30.0162 87.8605 30.0212 87.9063 30.0212C87.9491 30.0212 87.9913 30.0168 88.0335 30.0074L90.9982 29.3596C91.0899 29.3395 91.1761 29.2981 91.2494 29.2385L92.3088 28.3812C92.5741 28.1669 92.6194 27.773 92.4103 27.5009ZM68.6292 21.3755C68.2874 20.7082 68.1157 19.918 68.1572 19.2068C68.1951 18.5596 68.3913 18.2291 68.4745 18.1783C68.7508 18.0077 68.851 17.6471 68.7037 17.353C68.3498 16.6474 68.5221 15.1316 69.0967 13.9018C69.2856 13.4966 69.5319 13.1367 69.8076 12.8463C69.6707 13.3254 69.6035 13.7977 69.6145 14.2279C69.6438 15.3719 70.1903 15.8096 70.5137 15.9682C70.8951 16.1558 71.3248 16.1501 71.7576 15.9776C71.2472 16.7145 70.4905 17.353 69.7869 17.6051C69.4867 17.713 69.2551 17.9513 69.1505 18.2592C69.0453 18.569 69.0833 18.9058 69.2551 19.1836C69.4776 19.5436 69.7282 19.9983 70.043 20.6148C70.3614 21.2376 70.7301 21.9908 70.9293 22.5929L70.3052 23.1228C69.76 22.8386 69.0833 22.2648 68.6292 21.3755ZM84.2785 25.7956L83.7155 28.2716C83.3738 29.7737 82.537 31.1283 81.3596 32.0872C80.1823 33.0455 78.7061 33.5735 77.203 33.5735C75.6998 33.5735 74.2236 33.0455 73.0463 32.0872C71.8683 31.1283 71.0321 29.7737 70.6904 28.2716L70.1269 25.7956C70.0217 25.3334 70.1776 24.8581 70.5345 24.5558L72.7957 22.638C74.0726 21.5549 75.6375 21.013 77.203 21.013C78.7678 21.013 80.3333 21.5549 81.6103 22.638L83.8714 24.5558C84.2277 24.8581 84.3836 25.3334 84.2785 25.7956ZM84.1006 23.1227L83.4759 22.5928C83.6752 21.9901 84.0444 21.2369 84.3622 20.6154C84.6783 19.9983 84.9282 19.5436 85.1507 19.1836C85.3219 18.9064 85.3604 18.569 85.2553 18.2599C85.1507 17.9513 84.9185 17.713 84.6183 17.6051C83.9153 17.353 83.1586 16.7146 82.6482 15.9783C83.0809 16.1501 83.5101 16.1558 83.8915 15.9682C84.2149 15.8095 84.7614 15.3718 84.7913 14.2279C84.8023 13.7977 84.7351 13.326 84.5982 12.8463C84.8739 13.1373 85.1196 13.4966 85.3091 13.9018C85.8837 15.131 86.056 16.6468 85.7015 17.3518C85.5536 17.6459 85.6544 18.0072 85.9307 18.1771C86.0145 18.2285 86.2101 18.559 86.248 19.2062C86.2896 19.9174 86.1178 20.7083 85.776 21.3762C85.3219 22.2648 84.6453 22.8392 84.1006 23.1227Z" fill="white"/>
</g>
<path d="M87.1435 80.213C87.1435 80.8198 87.3946 81.3702 87.8001 81.7685C88.2055 82.1667 88.7658 82.4134 89.3829 82.4134C89.7242 82.4134 90 82.1419 90 81.8073C90 81.472 89.7242 81.2011 89.3829 81.2011C88.8288 81.2011 88.3777 80.758 88.3777 80.213C88.3777 79.2705 88.0253 78.4072 87.444 77.7435C86.862 77.0791 86.0506 76.6142 85.1324 76.4687V73.8852C86.9694 73.5943 88.3777 72.0261 88.3777 70.1403C88.3777 69.5953 88.8288 69.1522 89.3829 69.1522C89.7242 69.1522 90 68.8813 90 68.5461C90 68.2114 89.7242 67.9399 89.3829 67.9399C88.1481 67.9399 87.1435 68.9273 87.1435 70.1403C87.1435 71.5635 85.9642 72.722 84.5153 72.722H84.2197C84.0364 70.8968 83.0361 69.3038 81.5841 68.3018V67.6157C81.5841 66.9864 81.3348 66.3942 80.8812 65.9493L80.8769 65.945C81.568 65.6274 82.1154 65.0419 82.3659 64.2963C82.4727 63.978 82.2968 63.6355 81.9729 63.5307C81.6495 63.4258 81.3002 63.5985 81.1935 63.9162C81.0009 64.492 80.4931 64.8982 79.8938 64.9788L79.697 64.7855C78.7615 63.8665 77.2385 63.8665 76.303 64.7855L76.1062 64.9788C75.5069 64.8982 74.9991 64.492 74.8065 63.9162C74.6998 63.5986 74.3505 63.4258 74.0271 63.5307C73.7032 63.6355 73.5273 63.978 73.6341 64.2963C73.8846 65.0424 74.4326 65.6274 75.1231 65.9444L75.1188 65.9493C74.6652 66.3942 74.4159 66.9864 74.4159 67.6156V68.3018C72.9639 69.3038 71.9636 70.8968 71.7809 72.722H71.4847C70.0358 72.722 68.8565 71.5635 68.8565 70.1403C68.8565 68.9273 67.8519 67.9399 66.6171 67.9399C66.2758 67.9399 66 68.2114 66 68.5461C66 68.8813 66.2758 69.1522 66.6171 69.1522C67.1712 69.1522 67.6223 69.5953 67.6223 70.1403C67.6223 72.0261 69.0306 73.5942 70.8676 73.8852V76.048C69.0306 76.3389 67.6223 77.9071 67.6223 79.7923C67.6223 80.0645 67.5094 80.3117 67.3274 80.4906C67.1453 80.6694 66.8942 80.7803 66.6171 80.7803C66.2758 80.7803 66 81.0519 66 81.3865C66 81.7211 66.2758 81.9927 66.6171 81.9927C67.8519 81.9927 68.8565 81.0058 68.8565 79.7923C68.8565 79.1855 69.0713 78.6266 69.4298 78.1847C69.7889 77.7434 70.2912 77.4197 70.8676 77.2827V81.6417C69.0306 81.9326 67.6223 83.5008 67.6223 85.386C67.6223 85.6582 67.5094 85.9055 67.3274 86.0843C67.1453 86.2631 66.8942 86.374 66.6171 86.374C66.2758 86.374 66 86.6456 66 86.9802C66 87.3148 66.2759 87.5865 66.6171 87.5865C67.8519 87.5865 68.8566 86.5996 68.8566 85.3861C68.8566 84.7787 69.0713 84.2192 69.4305 83.7779C69.7896 83.3366 70.2926 83.0129 70.8689 82.8765C70.9306 86.1717 73.6779 88.8333 77.0466 88.8333H78.9534C82.3221 88.8333 85.0693 86.1723 85.1311 82.8765C86.2838 83.1493 87.1434 84.1713 87.1434 85.3861C87.1434 85.9928 87.3945 86.5432 87.8 86.9415C88.2054 87.3398 88.7657 87.5865 89.3828 87.5865C89.7241 87.5865 89.9999 87.3149 89.9999 86.9803C89.9999 86.6457 89.7241 86.3741 89.3828 86.3741C88.8287 86.3741 88.3776 85.931 88.3776 85.3861C88.3776 84.4435 88.0252 83.5803 87.4439 82.9166C86.8619 82.2522 86.0505 81.7873 85.1323 81.6418V77.7041C86.2844 77.9769 87.1435 78.9983 87.1435 80.213ZM75.6501 67.6157C75.6501 67.3102 75.771 67.0228 75.9914 66.8064L77.1756 65.6426C77.6304 65.1964 78.3697 65.1964 78.8245 65.6426L80.0087 66.8064C80.229 67.0228 80.35 67.3102 80.35 67.6157V67.6399C79.6243 67.3496 78.8307 67.1889 78.0001 67.1889C77.1694 67.1889 76.3758 67.3496 75.6501 67.6399L75.6501 67.6157ZM78 68.4012C80.5566 68.4012 82.6714 70.2906 82.9762 72.722H80.4239C79.4354 72.722 78.556 73.1881 78 73.9077C77.444 73.1881 76.5646 72.722 75.5761 72.722H73.0232C73.3274 70.2907 75.4434 68.4012 78 68.4012ZM83.8982 82.7638C83.8982 85.4424 81.6797 87.621 78.9534 87.621H77.0466C74.3203 87.621 72.1019 85.4424 72.1019 82.7638V73.9343H75.5761C76.5721 73.9343 77.383 74.7303 77.383 75.7092V85.0351C77.383 85.3697 77.6594 85.6412 78.0001 85.6412C78.3407 85.6412 78.6171 85.3697 78.6171 85.0351V75.7092C78.6171 74.7303 79.428 73.9343 80.424 73.9343H83.8982V82.7638H83.8982Z" fill="white"/>
<g clip-path="url(#clip1_580_2295)">
<path d="M42.8249 64.1203C42.2319 63.4603 41.2193 63.1256 39.8154 63.1256C34.7696 63.1256 31.0198 66.1359 28.7626 68.6613C27.3978 70.1881 26.4602 71.6582 25.9139 72.6226C25.8751 72.6911 25.8009 72.8238 25.7097 72.9944C25.6566 72.9032 25.5986 72.8175 25.5361 72.7378L29.5944 65.2008C29.7509 64.9101 29.6421 64.5477 29.3515 64.3912C29.0609 64.2348 28.6985 64.3434 28.5419 64.634L24.5213 72.1009C24.4462 72.0886 24.3697 72.0815 24.2917 72.0815C24.2137 72.0815 24.1372 72.0886 24.062 72.1009L20.0414 64.634C19.8849 64.3434 19.5223 64.2348 19.2318 64.3912C18.9412 64.5477 18.8324 64.9101 18.9889 65.2008L23.0473 72.7378C22.9848 72.8174 22.9268 72.9031 22.8737 72.9944C22.7825 72.8238 22.7083 72.6912 22.6695 72.6226C22.1232 71.6582 21.1855 70.188 19.8208 68.6613C18.2578 66.9125 15.9786 64.9315 13.0493 63.8783C13.0471 63.8776 13.0451 63.8766 13.0429 63.8758C13.0419 63.8755 13.0407 63.8752 13.0397 63.8749C11.7415 63.4092 10.3158 63.1256 8.76793 63.1256C7.36404 63.1256 6.35147 63.4603 5.75845 64.1203C5.28996 64.6417 5.09812 65.3331 5.18836 66.1752L5.21339 66.4121C5.56354 69.7509 6.17576 73.7389 7.81564 74.9511C8.76666 75.654 10.2973 75.7428 12.0718 75.8347C10.0586 77.1794 9.19167 78.8385 8.82418 80.1183C8.19261 82.3181 8.64698 84.7375 10.0708 86.7562C11.386 88.6211 12.9388 89.9188 14.6859 90.6131C15.7228 91.0252 16.8176 91.2285 18.0108 91.2285C18.3231 91.2285 18.6424 91.2145 18.9688 91.1867C19.7512 91.1201 21.0237 90.476 23.0332 85.6722C23.2695 85.1074 23.4916 84.5424 23.6941 84.0052V87.0089C23.6941 87.3389 23.9617 87.6065 24.2917 87.6065C24.6218 87.6065 24.8894 87.3389 24.8894 87.0089V84.0052C25.092 84.5424 25.3139 85.1075 25.5502 85.6722C27.5598 90.4761 28.8323 91.1202 29.6147 91.1867C29.9412 91.2145 30.2603 91.2285 30.5727 91.2285C31.7657 91.2285 32.8607 91.0251 33.8976 90.6131C35.6447 89.9188 37.1974 88.6211 38.5127 86.7563C39.9365 84.7376 40.3909 82.3181 39.7593 80.1183C39.3918 78.8385 38.5249 77.1794 36.5116 75.8347C38.2862 75.7428 39.8167 75.654 40.7678 74.9511C42.4077 73.7389 43.0199 69.751 43.3701 66.4121L43.3951 66.1752C43.4852 65.3331 43.2934 64.6417 42.8249 64.1203ZM29.7749 69.3235C31.1963 67.7608 33.2514 65.993 35.8627 65.0335C35.8957 65.0285 35.9288 65.0212 35.9615 65.0104C36.0619 64.977 36.2661 64.9906 36.3297 65.0328C36.3365 65.0762 36.3492 65.3089 35.9967 65.867C35.7711 66.224 35.845 66.5314 35.9091 66.6829C36.1393 67.2267 36.8385 67.3732 37.6482 67.5428C37.7964 67.5739 37.9874 67.6139 38.1678 67.6582C37.9711 67.7421 37.7537 67.8288 37.5662 67.9036C36.1458 68.4703 34.3782 69.1755 34.3782 70.5052C34.3782 70.9297 34.6677 71.249 35.2386 71.4542C35.5593 71.5696 35.9614 71.6559 36.3872 71.7474C36.8158 71.8394 37.6405 72.0166 37.9627 72.2094C37.7558 72.337 37.4085 72.5021 37.1561 72.6219C36.1393 73.1049 34.8962 73.696 34.6863 74.7511C33.2774 74.8703 31.8352 75.1056 30.5921 75.7271C29.0408 76.5028 27.0365 75.9478 26.4611 75.7605C26.3682 75.4822 26.248 75.2263 26.105 74.9985C26.2959 74.322 27.5634 71.7548 29.7749 69.3235ZM24.2917 79.2464C23.5883 79.2464 23.0981 78.1454 23.0981 77.1573C23.0981 75.9261 23.7271 75.0681 24.2917 75.0681C24.995 75.0681 25.4852 76.1691 25.4852 77.1573C25.4852 78.3885 24.8562 79.2464 24.2917 79.2464ZM24.2917 73.2769C24.4705 73.2769 24.7084 73.529 24.822 73.9517C24.6518 73.9006 24.4746 73.8728 24.2917 73.8728C24.1087 73.8728 23.9315 73.9006 23.7613 73.9517C23.8749 73.529 24.1129 73.2769 24.2917 73.2769ZM18.8085 69.3235C21.02 71.7548 22.2875 74.322 22.4783 74.9984C22.3353 75.2262 22.2152 75.4821 22.1223 75.7603C21.5457 75.9481 19.5421 76.5026 17.9912 75.7271C16.7615 75.1122 15.3371 74.8755 13.9428 74.755C13.7352 73.6974 12.4904 73.1054 11.4724 72.6218C11.22 72.502 10.8726 72.337 10.6658 72.2094C10.9879 72.0165 11.8126 71.8394 12.2413 71.7473C12.667 71.6559 13.0692 71.5695 13.3898 71.4542C13.9608 71.2489 14.2503 70.9296 14.2503 70.5052C14.2503 69.1755 12.4826 68.4702 11.0622 67.9035C10.8748 67.8287 10.6574 67.742 10.4606 67.6581C10.641 67.6138 10.8321 67.5738 10.9803 67.5427C11.7899 67.3731 12.4891 67.2267 12.7193 66.6828C12.7834 66.5314 12.8573 66.2239 12.6317 65.8669C12.2792 65.3089 12.2918 65.0762 12.2986 65.0327C12.356 64.9947 12.5269 64.9802 12.6338 65.0022C15.2863 65.9543 17.3714 67.7436 18.8085 69.3235ZM7.03055 70.5132C6.6757 68.8953 6.49775 67.1989 6.4022 66.2874L6.37694 66.0479C6.32368 65.5505 6.41221 65.1813 6.64761 64.9193C6.99933 64.528 7.7325 64.321 8.768 64.321C9.61346 64.321 10.4202 64.4157 11.187 64.5841C11.0111 65.0176 11.0976 65.5609 11.4458 66.2064C11.2319 66.269 10.9389 66.3303 10.7353 66.373C9.83033 66.5626 8.80476 66.7774 8.80476 67.6416C8.80476 68.2899 9.4878 68.5624 10.6194 69.0139C11.216 69.252 11.8922 69.5217 12.3981 69.8301C12.7474 70.043 12.9132 70.2107 12.9903 70.3295C12.7405 70.4178 12.3039 70.5115 11.9904 70.5788C11.4511 70.6947 10.8934 70.8144 10.4325 71.0035C9.72388 71.2941 9.36461 71.7198 9.36461 72.2689C9.36461 72.944 10.0685 73.2784 10.9597 73.7018C11.4898 73.9535 12.2177 74.2996 12.5701 74.6639C12.4507 74.6575 12.332 74.6514 12.2144 74.6452C10.6654 74.5652 9.20242 74.4896 8.52625 73.9899C8.19941 73.7483 7.57068 72.9756 7.03055 70.5132ZM21.9305 85.2109C20.0627 89.6759 19.0512 89.9801 18.8674 89.9958C15.6622 90.2682 13.1043 88.9835 11.0476 86.0673C9.83362 84.3461 9.44201 82.298 9.9731 80.4482C10.3613 79.0959 11.4276 77.2353 14.289 75.9903C15.416 76.1118 16.5266 76.3312 17.4567 76.7962C18.2496 77.1927 19.1064 77.324 19.8942 77.3239C20.6764 77.3239 21.3898 77.1944 21.9044 77.0663C21.9038 77.0966 21.9028 77.1267 21.9028 77.1573C21.9028 78.7143 22.6527 79.9859 23.694 80.3419V80.3507C23.5538 80.8001 22.8522 83.0075 21.9305 85.2109ZM38.6103 80.4482C39.1414 82.298 38.7498 84.3461 37.5358 86.0674C35.4791 88.9835 32.9217 90.268 29.716 89.9958C29.5323 89.9801 28.5219 89.6764 26.6561 85.2185C25.7336 83.0146 25.0298 80.8008 24.8894 80.3507V80.342C25.9307 79.9859 26.6806 78.7144 26.6806 77.1573C26.6806 77.1269 26.6796 77.0967 26.679 77.0664C27.1936 77.1945 27.907 77.3241 28.6892 77.324C29.4768 77.324 30.3339 77.1927 31.1267 76.7963C32.0568 76.3312 33.1674 76.1119 34.2944 75.9903C37.1558 77.2353 38.2221 79.0959 38.6103 80.4482ZM42.2065 66.0479L42.1813 66.2874C42.0857 67.1988 41.9078 68.8952 41.5529 70.5131C41.0128 72.9755 40.3841 73.7483 40.0573 73.9898C39.3811 74.4895 37.9181 74.5651 36.3692 74.6451C36.2672 74.6504 36.1643 74.6557 36.0609 74.6612C36.4142 74.2978 37.1401 73.9528 37.669 73.7016C38.5602 73.2782 39.2641 72.9438 39.2641 72.2687C39.2641 71.7195 38.9047 71.2938 38.1962 71.0033C37.7352 70.8143 37.1775 70.6945 36.6383 70.5786C36.3247 70.5113 35.8881 70.4175 35.6383 70.3293C35.7156 70.2105 35.8813 70.0428 36.2305 69.8299C36.7364 69.5215 37.4127 69.2517 38.0093 69.0136C39.1409 68.5622 39.8239 68.2897 39.8239 67.6414C39.8239 66.7772 38.7983 66.5624 37.8934 66.3728C37.6898 66.3301 37.3968 66.2687 37.1829 66.2062C37.5333 65.5565 37.6186 65.0104 37.4381 64.5755C38.1925 64.4128 38.9853 64.3209 39.8156 64.3209C40.8511 64.3209 41.5844 64.5278 41.936 64.9191C42.1713 65.1813 42.2598 65.5504 42.2065 66.0479Z" fill="white"/>
</g>
<rect x="1" y="1" width="46" height="46" rx="7" stroke="#C69B2C" stroke-width="2"/>
<rect x="55" y="1" width="46" height="46" rx="7" stroke="#C69B2C" stroke-width="2"/>
<rect x="1" y="54" width="46" height="46" rx="7" stroke="#C69B2C" stroke-width="2"/>
<rect x="55" y="54" width="46" height="46" rx="7" stroke="#C69B2C" stroke-width="2"/>
<defs>
<clipPath id="clip0_580_2295">
<rect width="43.75" height="43.75" fill="white" transform="translate(54.625 2.07812)"/>
</clipPath>
<clipPath id="clip1_580_2295">
<rect width="38.25" height="38.25" fill="white" transform="translate(5.16669 58.0521)"/>
</clipPath>
</defs>
</svg>
